# xmcd
#
# Track frame offsets:
# 150
# 14555
# 30085
# 49890
# 74795
# 89500
# 105330
# 125135
# 142240
# 164970
# 177126
# 197007
# 215838
# 241567
# 257773
# 276154
# 298584
# 312090
# 338421
#
# Disc length: 4790 seconds
#
#
# Revision: 2
# Processed by: cddbd v1.5.2PL0 Copyright (c) Steve Scherf et al.
# Submitted via: FreeRIP 2.951 
#
DISCID=2412b413
DTITLE=Fatboy Slim - Bondi Beach - New Years Eve '06
DYEAR=2006
DGENRE=House
TTITLE0=Stephane Malca - Revolution
TTITLE1=Spankox - To The Club [Highpass Remix]
TTITLE2=Britalics - I Can C Thru U [Hughes and Spier Mix]
TTITLE3=Professional Losers - Crazy Sexy Hypnotic [Full Vocal Mix]
TTITLE4=Turbomen - Would You Say Thankyou If I Spank You? [Original Mix]
TTITLE5=Solid Groove - This Is Sick
TTITLE6=The Young Punx - Young And Beautiful [The Laurent Konrad Remix]
TTITLE7=Tomboy - Samba!
TTITLE8=Jerry Ropero and Denis The Menace present Sabor featuring Jaqueline - Coração [Denis and Jerry's New Bangin 2005 Mix]
TTITLE9=Freeform Five - No More Conversations [Mylo Remix]
TTITLE10=Tomas Andersson - Washing Up [Tiga Remix]
TTITLE11=Trick and Kubic - Orbital Dance Machine
TTITLE12=Red - Release The Pressure [Fatboy Slim Remix]
TTITLE13=Scent - Up and Down
TTITLE14=Yer Man - Satisfy Me [Jacked Up Funk Mix]
TTITLE15=Friendly - The Bump and Grind
TTITLE16=Dj Icey - Acid Conga [Madox Adventures in Drum Remix]
TTITLE17=AB/DC - This Feelin' [Original Mix]
TTITLE18=Olav Basoski - Waterman [Original Mix]
EXTD=ripped by rike rs 2007 ...
EXTT0=
EXTT1=
EXTT2=
EXTT3=
EXTT4=
EXTT5=
EXTT6=
EXTT7=
EXTT8=
EXTT9=
EXTT10=
EXTT11=
EXTT12=
EXTT13=
EXTT14=
EXTT15=
EXTT16=
EXTT17=
EXTT18=
PLAYORDER=
